<svg width="2732" height="2732" viewBox="0 0 2732 2732" xmlns="http://www.w3.org/2000/svg">
  <defs>
    <radialGradient id="bg" cx="50%" cy="45%" r="60%">
      <stop offset="0%" stop-color="#241a36"/>
      <stop offset="55%" stop-color="#191325"/>
      <stop offset="100%" stop-color="#0e0a17"/>
    </radialGradient>
    <linearGradient id="gold" x1="0" y1="0" x2="0" y2="1">
      <stop offset="0%" stop-color="#ffe08a"/>
      <stop offset="55%" stop-color="#f5b942"/>
      <stop offset="100%" stop-color="#e08a2e"/>
    </linearGradient>
  </defs>
  <rect width="2732" height="2732" fill="url(#bg)"/>
  <g transform="translate(1366 1230)">
    <!-- faint zodiac ring -->
    <circle cx="0" cy="0" r="430" fill="none" stroke="#f5b94233" stroke-width="3"/>
    <g fill="#f5b94255">
      <circle cx="0" cy="-430" r="10"/><circle cx="215" cy="-372" r="10"/><circle cx="372" cy="-215" r="10"/>
      <circle cx="430" cy="0" r="10"/><circle cx="372" cy="215" r="10"/><circle cx="215" cy="372" r="10"/>
      <circle cx="0" cy="430" r="10"/><circle cx="-215" cy="372" r="10"/><circle cx="-372" cy="215" r="10"/>
      <circle cx="-430" cy="0" r="10"/><circle cx="-372" cy="-215" r="10"/><circle cx="-215" cy="-372" r="10"/>
    </g>
    <!-- 8-pointed star -->
    <g fill="url(#gold)">
      <path d="M0,-300 L47,-82 L265,-127 L107,-36 L265,127 L82,47 L0,300 L-47,82 L-265,127 L-107,36 L-265,-127 L-82,-47 Z"/>
    </g>
    <circle cx="0" cy="0" r="64" fill="#0e0a17"/>
    <circle cx="0" cy="0" r="64" fill="none" stroke="url(#gold)" stroke-width="9"/>
    <circle cx="0" cy="0" r="18" fill="url(#gold)"/>
  </g>
  <text x="1366" y="1900" font-family="Georgia, 'Times New Roman', serif" font-size="150" letter-spacing="14" fill="#f5e6c4" text-anchor="middle">JYOTISH</text>
  <text x="1366" y="2010" font-family="Georgia, serif" font-size="58" letter-spacing="6" fill="#f5b94299" text-anchor="middle">Vedic Astrology</text>
</svg>
